<svg width="22" height="22" viewBox="0 0 22 22" fill="none" xmlns="http://www.w3.org/2000/svg">
<path d="M17.875 2.75H15.8125V2.0625C15.8125 1.88016 15.7401 1.7053 15.6111 1.57636C15.4822 1.44743 15.3073 1.375 15.125 1.375C14.9427 1.375 14.7678 1.44743 14.6389 1.57636C14.5099 1.7053 14.4375 1.88016 14.4375 2.0625V2.75H7.5625V2.0625C7.5625 1.88016 7.49007 1.7053 7.36114 1.57636C7.2322 1.44743 7.05734 1.375 6.875 1.375C6.69266 1.375 6.5178 1.44743 6.38886 1.57636C6.25993 1.7053 6.1875 1.88016 6.1875 2.0625V2.75H4.125C3.76033 2.75 3.41059 2.89487 3.15273 3.15273C2.89487 3.41059 2.75 3.76033 2.75 4.125V17.875C2.75 18.2397 2.89487 18.5894 3.15273 18.8473C3.41059 19.1051 3.76033 19.25 4.125 19.25H17.875C18.2397 19.25 18.5894 19.1051 18.8473 18.8473C19.1051 18.5894 19.25 18.2397 19.25 17.875V4.125C19.25 3.76033 19.1051 3.41059 18.8473 3.15273C18.5894 2.89487 18.2397 2.75 17.875 2.75ZM6.1875 4.125V4.8125C6.1875 4.99484 6.25993 5.1697 6.38886 5.29864C6.5178 5.42757 6.69266 5.5 6.875 5.5C7.05734 5.5 7.2322 5.42757 7.36114 5.29864C7.49007 5.1697 7.5625 4.99484 7.5625 4.8125V4.125H14.4375V4.8125C14.4375 4.99484 14.5099 5.1697 14.6389 5.29864C14.7678 5.42757 14.9427 5.5 15.125 5.5C15.3073 5.5 15.4822 5.42757 15.6111 5.29864C15.7401 5.1697 15.8125 4.99484 15.8125 4.8125V4.125H17.875V6.875H4.125V4.125H6.1875ZM17.875 17.875H4.125V8.25H17.875V17.875ZM12.375 13.0625C12.375 13.3344 12.2944 13.6003 12.1433 13.8264C11.9922 14.0525 11.7774 14.2288 11.5262 14.3328C11.2749 14.4369 10.9985 14.4641 10.7318 14.4111C10.465 14.358 10.22 14.2271 10.0277 14.0348C9.83543 13.8425 9.70447 13.5975 9.65142 13.3307C9.59837 13.064 9.6256 12.7876 9.72967 12.5363C9.83374 12.2851 10.01 12.0703 10.2361 11.9192C10.4622 11.7681 10.7281 11.6875 11 11.6875C11.3647 11.6875 11.7144 11.8324 11.9723 12.0902C12.2301 12.3481 12.375 12.6978 12.375 13.0625Z" fill="white"/>
</svg>
