<svg width="23" height="22" viewBox="0 0 23 22" fill="none" xmlns="http://www.w3.org/2000/svg">
<path d="M15.2572 8.45109C15.3211 8.51494 15.3719 8.59077 15.4064 8.67423C15.441 8.75769 15.4589 8.84715 15.4589 8.9375C15.4589 9.02785 15.441 9.11731 15.4064 9.20077C15.3719 9.28423 15.3211 9.36006 15.2572 9.42391L10.4447 14.2364C10.3809 14.3003 10.305 14.351 10.2216 14.3856C10.1381 14.4202 10.0487 14.438 9.95831 14.438C9.86796 14.438 9.7785 14.4202 9.69504 14.3856C9.61158 14.351 9.53576 14.3003 9.47191 14.2364L7.40941 12.1739C7.2804 12.0449 7.20793 11.8699 7.20793 11.6875C7.20793 11.5051 7.2804 11.3301 7.40941 11.2011C7.53841 11.0721 7.71338 10.9996 7.89581 10.9996C8.07825 10.9996 8.25322 11.0721 8.38222 11.2011L9.95831 12.778L14.2844 8.45109C14.3483 8.38717 14.4241 8.33646 14.5075 8.30187C14.591 8.26727 14.6805 8.24946 14.7708 8.24946C14.8612 8.24946 14.9506 8.26727 15.0341 8.30187C15.1175 8.33646 15.1934 8.38717 15.2572 8.45109ZM19.5833 4.125V17.875C19.5833 18.2397 19.4384 18.5894 19.1806 18.8473C18.9227 19.1051 18.573 19.25 18.2083 19.25H4.45831C4.09364 19.25 3.7439 19.1051 3.48604 18.8473C3.22818 18.5894 3.08331 18.2397 3.08331 17.875V4.125C3.08331 3.76033 3.22818 3.41059 3.48604 3.15273C3.7439 2.89487 4.09364 2.75 4.45831 2.75H18.2083C18.573 2.75 18.9227 2.89487 19.1806 3.15273C19.4384 3.41059 19.5833 3.76033 19.5833 4.125ZM18.2083 17.875V4.125H4.45831V17.875H18.2083Z" fill="white"/>
</svg>
