<svg width="23" height="22" viewBox="0 0 23 22" fill="none" xmlns="http://www.w3.org/2000/svg">
<path fill-rule="evenodd" clip-rule="evenodd" d="M11.6665 5.5C12.0462 5.5 12.354 5.8078 12.354 6.1875V7.5625C12.354 7.9422 12.0462 8.25 11.6665 8.25C11.2868 8.25 10.979 7.9422 10.979 7.5625V6.1875C10.979 5.8078 11.2868 5.5 11.6665 5.5Z" fill="white"/>
<path fill-rule="evenodd" clip-rule="evenodd" d="M11.6665 13.75C12.0462 13.75 12.354 14.0578 12.354 14.4375V15.8125C12.354 16.1922 12.0462 16.5 11.6665 16.5C11.2868 16.5 10.979 16.1922 10.979 15.8125V14.4375C10.979 14.0578 11.2868 13.75 11.6665 13.75Z" fill="white"/>
<path fill-rule="evenodd" clip-rule="evenodd" d="M11.6665 3.4375C7.48985 3.4375 4.104 6.82335 4.104 11C4.104 15.1767 7.48985 18.5625 11.6665 18.5625C15.8432 18.5625 19.229 15.1767 19.229 11C19.229 6.82335 15.8432 3.4375 11.6665 3.4375ZM2.729 11C2.729 6.06396 6.73046 2.0625 11.6665 2.0625C16.6025 2.0625 20.604 6.06396 20.604 11C20.604 15.936 16.6025 19.9375 11.6665 19.9375C6.73046 19.9375 2.729 15.936 2.729 11Z" fill="white"/>
<path fill-rule="evenodd" clip-rule="evenodd" d="M10.6353 8.25C10.3617 8.25 10.0994 8.35865 9.90605 8.55205C9.71265 8.74544 9.604 9.00775 9.604 9.28125C9.604 9.55475 9.71265 9.81706 9.90605 10.0105C10.0994 10.2039 10.3617 10.3125 10.6353 10.3125H12.6978C13.3359 10.3125 13.948 10.566 14.3992 11.0173C14.8505 11.4685 15.104 12.0806 15.104 12.7188C15.104 13.3569 14.8505 13.969 14.3992 14.4202C13.948 14.8715 13.3359 15.125 12.6978 15.125H9.604C9.22431 15.125 8.9165 14.8172 8.9165 14.4375C8.9165 14.0578 9.22431 13.75 9.604 13.75H12.6978C12.9713 13.75 13.2336 13.6414 13.427 13.448C13.6204 13.2546 13.729 12.9923 13.729 12.7188C13.729 12.4452 13.6204 12.1829 13.427 11.9895C13.2336 11.7961 12.9713 11.6875 12.6978 11.6875H10.6353C9.99708 11.6875 9.38504 11.434 8.93378 10.9827C8.48252 10.5315 8.229 9.91943 8.229 9.28125C8.229 8.64307 8.48252 8.03103 8.93378 7.57977C9.38504 7.12851 9.99708 6.875 10.6353 6.875H13.729C14.1087 6.875 14.4165 7.1828 14.4165 7.5625C14.4165 7.9422 14.1087 8.25 13.729 8.25H10.6353Z" fill="white"/>
</svg>
