<svg width="14" height="18" viewBox="0 0 14 18" fill="none" xmlns="http://www.w3.org/2000/svg">
<path fill-rule="evenodd" clip-rule="evenodd" d="M6.34375 4.1875C4.04832 4.1875 2.1875 6.04832 2.1875 8.34375C2.1875 10.6392 4.04832 12.5 6.34375 12.5C8.63918 12.5 10.5 10.6392 10.5 8.34375C10.5 6.04832 8.63918 4.1875 6.34375 4.1875ZM1.3125 8.34375C1.3125 5.56507 3.56507 3.3125 6.34375 3.3125C9.12243 3.3125 11.375 5.56507 11.375 8.34375C11.375 11.1224 9.12243 13.375 6.34375 13.375C3.56507 13.375 1.3125 11.1224 1.3125 8.34375Z" fill="#434345"/>
<path fill-rule="evenodd" clip-rule="evenodd" d="M9.28283 11.2828C9.45368 11.112 9.73069 11.112 9.90155 11.2828L12.5594 13.9406C12.7302 14.1115 12.7302 14.3885 12.5594 14.5594C12.3885 14.7302 12.1115 14.7302 11.9406 14.5594L9.28283 11.9015C9.11197 11.7307 9.11197 11.4537 9.28283 11.2828Z" fill="#434345"/>
</svg>
