<svg width="23" height="22" viewBox="0 0 23 22" fill="none" xmlns="http://www.w3.org/2000/svg">
<path d="M20.6041 8.9375C20.7865 8.9375 20.9613 8.86507 21.0903 8.73614C21.2192 8.6072 21.2916 8.43234 21.2916 8.25V5.5C21.2916 5.13533 21.1468 4.78559 20.8889 4.52773C20.631 4.26987 20.2813 4.125 19.9166 4.125H3.41663C3.05195 4.125 2.70222 4.26987 2.44435 4.52773C2.18649 4.78559 2.04163 5.13533 2.04163 5.5V8.25C2.04163 8.43234 2.11406 8.6072 2.24299 8.73614C2.37192 8.86507 2.54679 8.9375 2.72913 8.9375C3.27613 8.9375 3.80074 9.1548 4.18753 9.54159C4.57433 9.92839 4.79163 10.453 4.79163 11C4.79163 11.547 4.57433 12.0716 4.18753 12.4584C3.80074 12.8452 3.27613 13.0625 2.72913 13.0625C2.54679 13.0625 2.37192 13.1349 2.24299 13.2639C2.11406 13.3928 2.04163 13.5677 2.04163 13.75V16.5C2.04163 16.8647 2.18649 17.2144 2.44435 17.4723C2.70222 17.7301 3.05195 17.875 3.41663 17.875H19.9166C20.2813 17.875 20.631 17.7301 20.8889 17.4723C21.1468 17.2144 21.2916 16.8647 21.2916 16.5V13.75C21.2916 13.5677 21.2192 13.3928 21.0903 13.2639C20.9613 13.1349 20.7865 13.0625 20.6041 13.0625C20.0571 13.0625 19.5325 12.8452 19.1457 12.4584C18.7589 12.0716 18.5416 11.547 18.5416 11C18.5416 10.453 18.7589 9.92839 19.1457 9.54159C19.5325 9.1548 20.0571 8.9375 20.6041 8.9375ZM3.41663 14.3687C4.1937 14.211 4.89233 13.7894 5.39414 13.1754C5.89594 12.5615 6.17007 11.7929 6.17007 11C6.17007 10.2071 5.89594 9.43852 5.39414 8.82457C4.89233 8.21063 4.1937 7.78904 3.41663 7.63125V5.5H8.22913V16.5H3.41663V14.3687ZM19.9166 14.3687V16.5H9.60413V5.5H19.9166V7.63125C19.1396 7.78904 18.4409 8.21063 17.9391 8.82457C17.4373 9.43852 17.1632 10.2071 17.1632 11C17.1632 11.7929 17.4373 12.5615 17.9391 13.1754C18.4409 13.7894 19.1396 14.211 19.9166 14.3687Z" fill="white"/>
</svg>
